<?xml version="1.0" encoding="UTF-8"?>
<svg id="Layer_1" xmlns="http://www.w3.org/2000/svg" version="1.1" viewBox="0 0 530 200">
  <!-- Generator: Adobe Illustrator 30.3.0, SVG Export Plug-In . SVG Version: 2.1.3 Build 182)  -->
  <defs>
    <style>
      .st0 {
        fill: #8a6e1e;
      }

      .st1 {
        fill: #1e3a8a;
      }
    </style>
  </defs>
  <g>
    <path class="st1" d="M128.47,54c-2.81-8.08-7.13-15.5-12.85-22.07-5.78-6.63-13.06-12-21.65-15.97-8.62-3.98-18.84-6-30.36-6H27.98c-4,0-7.57,1.51-10.32,4.37-2.69,2.79-4.12,6.33-4.12,10.24v107.58c0,3.96,1.46,7.5,4.2,10.24,2.74,2.75,6.28,4.2,10.24,4.2h35.63c11.53,0,21.74-2.02,30.36-6,8.59-3.97,15.87-9.34,21.65-15.98,5.72-6.56,10.04-13.98,12.85-22.06,2.76-7.98,4.16-16.15,4.16-24.28s-1.4-16.29-4.16-24.27ZM103.76,78.27c0,8.05-1.72,15.18-5.11,21.2-3.38,6.01-8.06,10.59-14.3,13.98-6.27,3.42-13.9,5.15-22.69,5.15h-19.06V37.95h19.06c8.78,0,16.42,1.73,22.69,5.15,6.24,3.39,10.92,7.97,14.3,13.97,3.39,6.02,5.11,13.16,5.11,21.2Z"/>
    <path class="st1" d="M219.34,63.38c-3.12-6.38-7.97-11.68-14.41-15.74-6.46-4.07-14.72-6.14-24.54-6.14-6.75,0-12.97.69-18.47,2.05-5.34,1.32-10.3,2.95-14.71,4.85-5.43,2.3-8.55,6.92-8.55,12.68,0,3.61,1.33,6.85,3.84,9.35,2.51,2.52,5.68,3.85,9.18,3.85,1.14,0,2.41-.18,3.88-.55l.4-.12c3.13-1,6.52-1.94,10.07-2.78,3.21-.77,7.09-1.16,11.53-1.16,6.31,0,11.04,1.2,13.67,3.48,1.64,1.42,2.73,3.76,3.25,6.99h-14.62c-15.49,0-26.87,3.11-34.8,9.5-8.25,6.64-12.43,15.27-12.43,25.68,0,6.83,1.72,12.84,5.09,17.87,3.29,4.91,7.74,8.72,13.2,11.35,5.29,2.54,11.03,3.82,17.07,3.82,9.42,0,17.36-1.68,23.6-5.01,1.82-.97,3.55-1.98,5.17-3.02.61,1.06,1.38,2.05,2.28,2.95,2.75,2.75,6.29,4.2,10.24,4.2s7.45-1.42,10.24-4.11c2.86-2.75,4.38-6.33,4.38-10.33v-50.16c0-6.75-1.53-13.31-4.56-19.5ZM194.84,111.88c-2.24,2.2-5.06,4.26-8.39,6.13-3.9,2.19-7.97,3.25-12.44,3.25-7.43,0-9.6-1.69-10.08-2.21-1.53-1.63-2.24-3.38-2.24-5.51,0-2.52.87-3.81,3.34-4.9,3.93-1.75,9.64-2.64,16.96-2.64h12.85v5.88Z"/>
    <path class="st1" d="M295.91,55.94c0,4.05-1.52,7.59-4.38,10.24-2.73,2.52-6.26,3.85-10.24,3.85h-.88c-4.62,0-8.68,1.1-12.4,3.39-3.42,2.09-6.25,4.65-8.61,7.79v51.83c0,4-1.51,7.58-4.38,10.33-2.79,2.69-6.33,4.11-10.24,4.11s-7.49-1.45-10.24-4.2c-2.74-2.74-4.2-6.28-4.2-10.24V57.01c0-3.91,1.43-7.46,4.12-10.25,2.75-2.86,6.32-4.37,10.32-4.37s7.53,1.48,10.33,4.29c1.1,1.09,1.99,2.3,2.67,3.6.97-.81,1.97-1.59,3-2.36,5.72-4.26,12.45-6.42,19.98-6.42h.89c3.99,0,7.53,1.48,10.23,4.29,2.64,2.74,4.03,6.25,4.03,10.15Z"/>
    <path class="st1" d="M372.78,129.18c0,5.16-2.69,9.39-7.55,11.93l-.36.18c-2.45,1.09-5.12,1.99-7.92,2.68-2.93.71-6.09,1.07-9.42,1.07-2.46,0-5.22-.23-8.45-.69-3.64-.52-7.21-1.71-10.63-3.53-3.83-2.03-7.03-5.2-9.53-9.41-2.51-4.24-3.73-9.55-3.73-16.23v-48.48h-6.12c-5.79,0-9.83-4.04-9.83-9.83,0-3.04,1.32-5.81,3.75-7.84l23.89-23.37c.38-.38.92-.84,1.69-1.44,1.68-1.31,3.7-1.99,5.84-1.99,2.75,0,5.29,1.12,7.15,3.15,1.76,1.92,2.68,4.29,2.68,6.85v7.72h13.57c3.71,0,7.01,1.33,9.52,3.84,2.52,2.52,3.85,5.82,3.85,9.53s-1.29,6.79-3.74,9.35c-2.53,2.64-5.86,4.03-9.63,4.03h-13.57v47.06c0,2.54.46,3.33.47,3.33.36.42.58.46.73.48,1.49.24,2.78.36,3.86.36,2.96,0,3.9-.34,3.94-.35,2.1-.82,4.35-1.24,6.69-1.24,3.25,0,6.28,1.19,8.77,3.44,2.67,2.43,4.08,5.68,4.08,9.4Z"/>
  </g>
  <g>
    <polygon class="st1" points="372.78 21.95 425.34 21.95 479.13 84.34 427.19 145.24 372.78 145.24 427.19 85.89 372.78 21.95"/>
    <polygon class="st0" points="441.57 21.95 460.81 21.95 516.46 84.09 416.53 190.04 445.51 140.19 495.18 84.14 441.57 21.95"/>
  </g>
</svg>